<svg width="25px" height="25px" viewBox="0 0 25 25" fill="none" xmlns="http://www.w3.org/2000/svg" transform="rotate(0) scale(1, 1)">
<path d="M12.1528 0C5.44445 0 0 5.44445 0 12.1528C0 18.8611 5.44445 24.3056 12.1528 24.3056C18.8611 24.3056 24.3056 18.8611 24.3056 12.1528C24.3056 5.44445 18.8611 0 12.1528 0ZM17.7917 8.26389C17.6094 10.184 16.8194 14.8507 16.4184 17.0017C16.2483 17.9132 15.908 18.217 15.592 18.2535C14.8872 18.3142 14.3524 17.7917 13.6719 17.342C12.6024 16.6372 11.9948 16.1997 10.9618 15.5191C9.75868 14.7292 10.5365 14.2917 11.2292 13.5868C11.4115 13.4045 14.5226 10.5729 14.5833 10.3177C14.5918 10.2791 14.5907 10.2389 14.5801 10.2008C14.5695 10.1627 14.5497 10.1277 14.5226 10.099C14.4497 10.0382 14.3524 10.0625 14.2674 10.0747C14.158 10.099 12.4566 11.2292 9.13889 13.4653C8.65278 13.7934 8.21528 13.9635 7.82639 13.9514C7.38889 13.9392 6.5625 13.7083 5.94271 13.5017C5.17708 13.2587 4.5816 13.125 4.63021 12.6997C4.65451 12.4809 4.95833 12.2622 5.52951 12.0313C9.07813 10.4878 11.4358 9.46702 12.6146 8.9809C15.9931 7.57118 16.6858 7.32813 17.1476 7.32813C17.2448 7.32813 17.4757 7.35243 17.6215 7.47396C17.7431 7.57118 17.7795 7.70486 17.7917 7.80208C17.7795 7.875 17.8038 8.09375 17.7917 8.26389Z" fill="#849F7A"/>
</svg>