<svg width="25px" height="25px" viewBox="0 0 25 25" fill="none" xmlns="http://www.w3.org/2000/svg" transform="rotate(0) scale(1, 1)">
<path d="M2.02561 1.98313C0.324219 3.70072 0.324219 6.44725 0.324219 11.9484V12.9206C0.324219 18.4137 0.324219 21.1602 2.02561 22.8859C3.7432 24.5873 6.48973 24.5873 11.9909 24.5873H12.9631C18.4562 24.5873 21.2027 24.5873 22.9284 22.8859C24.6298 21.1683 24.6298 18.4218 24.6298 12.9206V11.9484C24.6298 6.45535 24.6298 3.70882 22.9284 1.98313C21.2108 0.281739 18.4643 0.281738 12.9631 0.281738H11.9909C6.49783 0.281738 3.7513 0.281739 2.02561 1.98313ZM4.42376 7.67873H7.21079C7.29991 12.313 9.34158 14.2736 10.962 14.6787V7.67873H13.5788V11.6729C15.1749 11.5028 16.8601 9.67989 17.4272 7.67063H20.036C19.8232 8.71066 19.3982 9.69564 18.7876 10.5641C18.1771 11.4325 17.394 12.1658 16.4874 12.7181C17.4994 13.2216 18.3931 13.9339 19.1095 14.8082C19.8259 15.6824 20.3488 16.6987 20.6437 17.7898H17.7675C17.1518 15.8697 15.6124 14.379 13.5788 14.1764V17.7898H13.2548C7.71311 17.7898 4.55339 13.9982 4.42376 7.67873Z" fill="#849F7A"/>
</svg>