<svg width="26" height="25" viewBox="0 0 26 25" fill="none" xmlns="http://www.w3.org/2000/svg">
<path d="M12.9677 0.281738C19.6797 0.281738 25.1205 5.72253 25.1205 12.4345C25.1205 19.1465 19.6797 24.5873 12.9677 24.5873C10.82 24.591 8.71011 24.0226 6.85489 22.9406L0.819821 24.5873L2.46288 18.5498C1.38001 16.694 0.811196 14.5831 0.81496 12.4345C0.81496 5.72253 6.25576 0.281738 12.9677 0.281738ZM8.82607 6.72271L8.58301 6.73243C8.42586 6.74326 8.27232 6.78453 8.13093 6.85396C7.99916 6.92871 7.87883 7.02203 7.77364 7.13104C7.6278 7.26837 7.54516 7.38746 7.45645 7.50291C7.00694 8.08734 6.76492 8.80486 6.7686 9.54215C6.77103 10.1376 6.92659 10.7173 7.16964 11.2593C7.66669 12.3555 8.48457 13.5161 9.56374 14.5916C9.82381 14.8505 10.079 15.1105 10.3537 15.3524C11.6946 16.5329 13.2926 17.3843 15.0203 17.8388L15.7106 17.9446C15.9354 17.9567 16.1603 17.9397 16.3863 17.9288C16.7402 17.9101 17.0857 17.8143 17.3986 17.648C17.5576 17.5658 17.7129 17.4766 17.8641 17.3807C17.8641 17.3807 17.9155 17.3458 18.016 17.2713C18.1801 17.1498 18.2809 17.0635 18.417 16.9213C18.5191 16.816 18.6042 16.6936 18.6722 16.5543C18.767 16.3562 18.8618 15.9783 18.9007 15.6635C18.9299 15.4229 18.9214 15.2916 18.9177 15.2102C18.9129 15.0802 18.8047 14.9453 18.6868 14.8882L17.9795 14.571C17.9795 14.571 16.9222 14.1104 16.2757 13.8163C16.208 13.7868 16.1356 13.7699 16.0618 13.7665C15.9787 13.7578 15.8946 13.767 15.8154 13.7937C15.7361 13.8203 15.6635 13.8636 15.6025 13.9208C15.5964 13.9184 15.5149 13.9876 14.6363 15.0522C14.5859 15.12 14.5164 15.1712 14.4368 15.1993C14.3571 15.2275 14.2709 15.2313 14.1891 15.2102C14.1099 15.1891 14.0323 15.1623 13.957 15.13C13.8063 15.0668 13.754 15.0425 13.6507 14.9987C12.953 14.6948 12.3072 14.2835 11.7367 13.7798C11.5835 13.6461 11.4413 13.5003 11.2955 13.3593C10.8174 12.9014 10.4008 12.3834 10.0559 11.8184L9.98422 11.7029C9.9335 11.6249 9.89191 11.5413 9.86027 11.4538C9.81409 11.2751 9.9344 11.1317 9.9344 11.1317C9.9344 11.1317 10.2297 10.8085 10.367 10.6335C10.5007 10.4633 10.6137 10.2981 10.6867 10.1802C10.8301 9.94927 10.875 9.71229 10.7997 9.52878C10.4594 8.69753 10.1078 7.87074 9.74481 7.0484C9.67311 6.88555 9.46044 6.76889 9.26721 6.7458C9.20159 6.73769 9.13596 6.73121 9.07034 6.72635C8.90716 6.71699 8.74354 6.71862 8.58058 6.73121L8.82607 6.72271Z" fill="#484C54"/>
</svg>
